<svg width="744" height="99" viewBox="0 0 744 99" fill="none" xmlns="http://www.w3.org/2000/svg">
<path d="M97.9097 0C84.7974 0 72.2222 5.20884 62.9504 14.4806C53.6786 23.7524 48.4697 36.3277 48.4697 49.44C48.4697 62.5523 53.6786 75.1276 62.9504 84.3994C72.2222 93.6712 84.7974 98.88 97.9097 98.88H147.35V49.44C147.35 36.3277 142.141 23.7524 132.869 14.4806C123.597 5.20884 111.022 0 97.9097 0ZM97.9097 79.57C91.9489 79.5779 86.1196 77.8175 81.1595 74.5116C76.1994 71.2057 72.3313 66.5028 70.0447 60.998C67.7581 55.4932 67.1557 49.4338 68.3138 43.5865C69.4718 37.7392 72.3383 32.3668 76.5505 28.1491C80.7626 23.9313 86.1312 21.0577 91.9769 19.8919C97.8227 18.7261 103.883 19.3204 109.391 21.5997C114.899 23.879 119.607 27.7408 122.919 32.6965C126.232 37.6522 128 43.4791 128 49.44C128 57.06 127.22 79.85 127.22 79.85C127.22 79.85 106.92 79.57 97.9097 79.57Z" fill="#B6DCF6"/>
<path d="M97.9098 62.3001C105.012 62.3001 110.77 56.5425 110.77 49.4401C110.77 42.3377 105.012 36.5801 97.9098 36.5801C90.8074 36.5801 85.0498 42.3377 85.0498 49.4401C85.0498 56.5425 90.8074 62.3001 97.9098 62.3001Z" fill="#B6DCF6"/>
<path d="M12.86 62.3001C19.9624 62.3001 25.72 56.5425 25.72 49.4401C25.72 42.3377 19.9624 36.5801 12.86 36.5801C5.75762 36.5801 0 42.3377 0 49.4401C0 56.5425 5.75762 62.3001 12.86 62.3001Z" fill="#B6DCF6"/>
<path d="M187.2 61.7898C184.873 61.8921 182.586 61.1617 180.75 59.7298C179.949 59.0913 179.308 58.2759 178.876 57.3476C178.444 56.4192 178.233 55.4034 178.26 54.3798C178.229 53.3369 178.452 52.3022 178.91 51.3649C179.368 50.4276 180.048 49.6159 180.89 48.9998C183.013 47.5618 185.549 46.8593 188.11 46.9998C189.266 46.998 190.419 47.1187 191.55 47.3598C192.643 47.5993 193.714 47.9339 194.75 48.3598V45.7298C194.803 45.0111 194.693 44.2897 194.428 43.6195C194.163 42.9494 193.75 42.3478 193.22 41.8598C191.953 40.9209 190.393 40.4637 188.82 40.5698C187.639 40.578 186.465 40.7462 185.33 41.0698C183.936 41.4732 182.578 41.9917 181.27 42.6198L179.51 38.9998C181.162 38.1983 182.891 37.5651 184.67 37.1098C186.25 36.716 187.871 36.5146 189.5 36.5098C192.653 36.5098 195.1 37.2664 196.84 38.7798C197.725 39.5904 198.419 40.588 198.87 41.7003C199.322 42.8125 199.52 44.0114 199.45 45.2098V61.3598H194.76V59.2598C193.718 60.0969 192.536 60.7435 191.27 61.1698C189.955 61.595 188.581 61.8044 187.2 61.7898ZM182.85 54.2798C182.842 54.8461 182.977 55.4052 183.24 55.9064C183.504 56.4076 183.889 56.835 184.36 57.1498C185.521 57.929 186.902 58.3145 188.3 58.2498C189.504 58.2626 190.701 58.0698 191.84 57.6798C192.913 57.3147 193.905 56.744 194.76 55.9998V51.7498C193.842 51.2451 192.86 50.8683 191.84 50.6298C190.74 50.3819 189.616 50.2611 188.49 50.2698C187.038 50.195 185.6 50.58 184.38 51.3698C183.901 51.6872 183.509 52.1203 183.242 52.6289C182.975 53.1375 182.84 53.7052 182.85 54.2798Z" fill="#B6DCF6"/>
<path d="M216.18 57.5795C217.366 57.5847 218.54 57.3322 219.62 56.8395C220.781 56.2917 221.834 55.5398 222.73 54.6195L225.6 57.7295C224.337 59.0005 222.844 60.0187 221.2 60.7295C219.558 61.4366 217.787 61.7975 216 61.7895C213.533 61.8218 211.113 61.1128 209.054 59.7542C206.995 58.3956 205.391 56.4501 204.45 54.1695C203.466 51.8339 203.193 49.2601 203.664 46.7701C204.136 44.28 205.331 41.9842 207.1 40.1695C208.269 39.0058 209.658 38.0863 211.186 37.4648C212.714 36.8433 214.35 36.5322 216 36.5495C217.824 36.5513 219.629 36.9185 221.31 37.6295C222.989 38.3241 224.515 39.3436 225.8 40.6295L222.8 43.8795C221.922 42.9262 220.865 42.1549 219.69 41.6095C218.568 41.0895 217.346 40.8199 216.11 40.8195C215.058 40.805 214.015 41.0151 213.051 41.4359C212.087 41.8567 211.224 42.4784 210.52 43.2595C209.034 44.891 208.211 47.0181 208.211 49.2245C208.211 51.431 209.034 53.558 210.52 55.1895C211.243 55.9619 212.121 56.5737 213.096 56.9854C214.071 57.3971 215.121 57.5995 216.18 57.5795Z" fill="#B6DCF6"/>
<path d="M239.93 57.5798C241.116 57.585 242.29 57.3325 243.37 56.8398C244.531 56.2921 245.584 55.5401 246.48 54.6198L249.35 57.7298C248.087 59.001 246.594 60.0193 244.95 60.7298C243.306 61.4452 241.532 61.8129 239.74 61.8098C237.274 61.8401 234.857 61.1301 232.8 59.7717C230.742 58.4132 229.14 56.4688 228.2 54.1898C227.216 51.8542 226.943 49.2804 227.414 46.7904C227.886 44.3003 229.081 42.0045 230.85 40.1898C231.993 39.0413 233.352 38.1305 234.85 37.5098C236.404 36.8445 238.079 36.5042 239.77 36.5098C241.569 36.5317 243.346 36.9089 245 37.6198C246.679 38.3146 248.205 39.3341 249.49 40.6198L246.49 43.8698C245.612 42.9165 244.555 42.1452 243.38 41.5998C242.255 41.0784 241.029 40.8088 239.79 40.8098C238.738 40.7953 237.695 41.0054 236.731 41.4262C235.767 41.847 234.904 42.4687 234.2 43.2498C232.716 44.8824 231.894 47.009 231.894 49.2148C231.894 51.4206 232.716 53.5473 234.2 55.1798C234.93 55.9634 235.818 56.5827 236.806 56.9965C237.794 57.4103 238.859 57.6091 239.93 57.5798Z" fill="#B6DCF6"/>
<path d="M273.14 58.5899C270.469 60.7213 267.137 61.8531 263.72 61.7899C260.336 61.8078 257.079 60.5056 254.64 58.1599C253.478 57.0232 252.56 55.6624 251.94 54.1599C250.65 50.979 250.65 47.4208 251.94 44.2399C252.537 42.7541 253.412 41.3963 254.52 40.2399C255.623 39.1106 256.938 38.2101 258.39 37.5899C259.896 36.9275 261.524 36.5869 263.17 36.5899C264.746 36.5835 266.306 36.9056 267.751 37.5358C269.195 38.166 270.493 39.0903 271.56 40.2499C272.62 41.4197 273.454 42.776 274.02 44.2499C274.63 45.8458 274.939 47.5413 274.93 49.2499V50.6399H255.69C255.984 52.6024 256.979 54.3921 258.49 55.6787C260 56.9653 261.926 57.6619 263.91 57.6399C265.064 57.6443 266.211 57.4515 267.3 57.0699C268.316 56.725 269.256 56.1886 270.07 55.4899L273.14 58.5899ZM263.05 40.6599C261.289 40.638 259.587 41.289 258.29 42.4799C256.924 43.7037 256.021 45.3594 255.73 47.1699H270.17C269.859 45.3919 268.978 43.7634 267.66 42.5299C266.43 41.3227 264.773 40.6506 263.05 40.6599Z" fill="#B6DCF6"/>
<path d="M276.75 58.1994L279.34 54.9994C280.526 55.9365 281.839 56.7007 283.24 57.2694C284.511 57.7833 285.869 58.0514 287.24 58.0594C288.709 58.1243 290.167 57.778 291.45 57.0594C291.935 56.8105 292.343 56.4341 292.63 55.9707C292.917 55.5073 293.073 54.9745 293.08 54.4294C293.089 54.0312 293.004 53.6365 292.83 53.2781C292.656 52.9198 292.399 52.6082 292.08 52.3694C291.189 51.7638 290.154 51.4018 289.08 51.3194L284.68 50.6994C282.689 50.5188 280.797 49.7456 279.25 48.4794C278.661 47.8975 278.202 47.1974 277.904 46.4251C277.606 45.6528 277.475 44.826 277.52 43.9994C277.496 42.9647 277.723 41.9397 278.181 41.0117C278.639 40.0836 279.314 39.28 280.15 38.6694C282.156 37.2536 284.578 36.5495 287.03 36.6694C288.756 36.6596 290.472 36.916 292.12 37.4294C293.797 37.9717 295.385 38.7603 296.83 39.7694L294.39 42.9194C293.189 42.1011 291.88 41.4548 290.5 40.9994C289.272 40.6051 287.99 40.4027 286.7 40.3994C285.455 40.3395 284.222 40.6566 283.16 41.3094C282.749 41.5574 282.409 41.9081 282.174 42.3271C281.939 42.7461 281.817 43.219 281.82 43.6994C281.801 44.0832 281.876 44.4657 282.038 44.8141C282.2 45.1626 282.444 45.4664 282.75 45.6994C283.687 46.2632 284.74 46.6053 285.83 46.6994L290.23 47.3194C292.236 47.5097 294.14 48.293 295.7 49.5694C296.326 50.1436 296.819 50.8471 297.145 51.6311C297.472 52.4151 297.623 53.2608 297.59 54.1094C297.588 55.1606 297.316 56.1936 296.8 57.1094C296.265 58.0576 295.531 58.8796 294.65 59.5194C293.668 60.2248 292.577 60.7652 291.42 61.1194C290.126 61.5256 288.776 61.728 287.42 61.7194C285.417 61.7332 283.425 61.426 281.52 60.8094C279.77 60.2716 278.147 59.3836 276.75 58.1994Z" fill="#B6DCF6"/>
<path d="M299.11 58.1994L301.69 54.9994C302.877 55.9365 304.19 56.7007 305.59 57.2694C306.862 57.7833 308.219 58.0514 309.59 58.0594C311.059 58.1243 312.517 57.778 313.8 57.0594C314.285 56.8105 314.693 56.4341 314.981 55.9707C315.268 55.5073 315.423 54.9745 315.43 54.4294C315.44 54.0312 315.354 53.6365 315.18 53.2781C315.006 52.9198 314.749 52.6082 314.43 52.3694C313.539 51.7638 312.505 51.4018 311.43 51.3194L307.03 50.6994C305.039 50.5188 303.148 49.7456 301.6 48.4794C301.011 47.8975 300.553 47.1974 300.254 46.4251C299.956 45.6528 299.825 44.826 299.87 43.9994C299.847 42.9647 300.073 41.9397 300.531 41.0117C300.989 40.0836 301.665 39.28 302.5 38.6694C304.506 37.2536 306.928 36.5495 309.38 36.6694C311.106 36.6596 312.823 36.916 314.47 37.4294C316.148 37.9717 317.735 38.7603 319.18 39.7694L316.74 42.9194C315.538 42.0933 314.225 41.4402 312.84 40.9794C311.612 40.5851 310.33 40.3827 309.04 40.3794C307.796 40.3195 306.562 40.6366 305.5 41.2894C305.089 41.5373 304.749 41.8881 304.514 42.3071C304.279 42.7261 304.157 43.199 304.16 43.6794C304.142 44.0631 304.217 44.4457 304.379 44.7941C304.541 45.1426 304.785 45.4464 305.09 45.6794C306.027 46.2432 307.081 46.5853 308.17 46.6794L312.57 47.2994C314.577 47.4897 316.481 48.273 318.04 49.5494C318.685 50.1225 319.196 50.8313 319.534 51.6249C319.873 52.4184 320.032 53.2771 320 54.1394C319.999 55.1906 319.727 56.2236 319.21 57.1394C318.662 58.1082 317.908 58.9446 317 59.5894C316.018 60.2948 314.927 60.8352 313.77 61.1894C312.476 61.5956 311.127 61.798 309.77 61.7894C307.768 61.8032 305.776 61.496 303.87 60.8794C302.118 60.3195 300.498 59.4075 299.11 58.1994Z" fill="#B6DCF6"/>
<path d="M342.27 59.0006L330.7 36.7406V61.3606H324.3V27.8906H333.19L342.37 45.8906L351.55 27.8906H360.44V61.3606H353.89V36.7906L342.27 59.0006Z" fill="#B6DCF6"/>
<path d="M364.84 48.9297C364.817 47.1821 365.158 45.4489 365.84 43.8397C366.502 42.2983 367.46 40.9018 368.66 39.7297C369.891 38.5539 371.337 37.6269 372.92 36.9997C376.264 35.659 379.996 35.659 383.34 36.9997C384.913 37.6361 386.35 38.5698 387.57 39.7497C388.77 40.9218 389.728 42.3183 390.39 43.8597C391.068 45.4711 391.417 47.2016 391.417 48.9497C391.417 50.6978 391.068 52.4283 390.39 54.0397C389.733 55.5777 388.774 56.9684 387.57 58.1297C386.344 59.2952 384.909 60.2181 383.34 60.8497C380.894 61.8495 378.213 62.1247 375.615 61.6424C373.018 61.1601 370.614 59.9407 368.69 58.1297C367.46 56.9398 366.485 55.5126 365.823 53.9346C365.161 52.3567 364.827 50.6608 364.84 48.9497V48.9297ZM378.13 56.1497C379.048 56.1566 379.956 55.9685 380.796 55.5979C381.635 55.2272 382.387 54.6825 383 53.9997C384.292 52.5996 385.009 50.7646 385.009 48.8597C385.009 46.9548 384.292 45.1197 383 43.7197C382.374 43.0553 381.618 42.526 380.78 42.1642C379.941 41.8024 379.038 41.6158 378.125 41.6158C377.212 41.6158 376.308 41.8024 375.47 42.1642C374.632 42.526 373.876 43.0553 373.25 43.7197C371.958 45.1197 371.241 46.9548 371.241 48.8597C371.241 50.7646 371.958 52.5996 373.25 53.9997C373.864 54.6837 374.617 55.2292 375.458 55.5999C376.3 55.9706 377.211 56.158 378.13 56.1497Z" fill="#B6DCF6"/>
<path d="M395.11 61.3591V36.4491H401.66V38.4491C402.604 37.6589 403.681 37.0426 404.84 36.6291C406.062 36.2058 407.348 35.9961 408.64 36.0091C409.952 35.9581 411.26 36.1796 412.481 36.6597C413.703 37.1399 414.811 37.8681 415.737 38.7985C416.663 39.7289 417.385 40.8412 417.859 42.0651C418.333 43.289 418.548 44.5979 418.49 45.9091V61.3591H411.94V46.8291C411.979 46.1284 411.873 45.4271 411.631 44.7685C411.388 44.1099 411.014 43.5078 410.53 42.9991C410.039 42.5129 409.452 42.1338 408.806 41.886C408.161 41.6381 407.471 41.5268 406.78 41.5591C405.763 41.5453 404.757 41.7678 403.84 42.2091C402.972 42.6311 402.222 43.2636 401.66 44.0491V61.3591H395.11Z" fill="#B6DCF6"/>
<path d="M426.55 33.4902C425.681 33.4956 424.838 33.1994 424.163 32.6521C423.489 32.1049 423.026 31.3406 422.852 30.4896C422.678 29.6386 422.806 28.7538 423.212 27.9862C423.618 27.2186 424.278 26.6158 425.079 26.2806C425.881 25.9455 426.773 25.8989 427.605 26.1487C428.437 26.3986 429.156 26.9293 429.64 27.6505C430.124 28.3716 430.343 29.2384 430.259 30.1028C430.175 30.9672 429.793 31.7757 429.18 32.3902C428.84 32.7439 428.431 33.024 427.979 33.2132C427.527 33.4025 427.04 33.4967 426.55 33.4902ZM429.85 36.4902V61.3602H423.3V36.4502L429.85 36.4902Z" fill="#B6DCF6"/>
<path d="M437.69 54.3294V41.9994H432.57V36.4994H437.69V30.0894L444.24 28.6094V36.4494H451.32V41.9994H444.24V52.9994C444.193 53.4442 444.235 53.8941 444.366 54.322C444.497 54.7499 444.712 55.147 445 55.4894C445.776 56.049 446.729 56.3051 447.68 56.2094C448.256 56.2114 448.831 56.1713 449.4 56.0894C450.004 55.9923 450.596 55.8383 451.17 55.6294V60.9994C450.343 61.2503 449.497 61.4343 448.64 61.5494C447.803 61.6788 446.958 61.749 446.11 61.7594C443.337 61.7594 441.24 61.1294 439.82 59.8694C439.081 59.1584 438.507 58.2936 438.139 57.3363C437.771 56.379 437.618 55.3525 437.69 54.3294Z" fill="#B6DCF6"/>
<path d="M453 48.9297C452.977 47.1821 453.318 45.4489 454 43.8397C454.661 42.2983 455.619 40.9018 456.82 39.7297C458.027 38.5625 459.445 37.6359 461 36.9997C464.343 35.659 468.076 35.659 471.42 36.9997C472.993 37.6361 474.429 38.5698 475.65 39.7497C476.85 40.9218 477.808 42.3183 478.47 43.8597C479.147 45.4711 479.496 47.2016 479.496 48.9497C479.496 50.6978 479.147 52.4283 478.47 54.0397C477.812 55.5777 476.853 56.9684 475.65 58.1297C474.424 59.2952 472.989 60.2181 471.42 60.8497C468.974 61.8495 466.292 62.1247 463.695 61.6424C461.097 61.1601 458.693 59.9407 456.77 58.1297C455.552 56.9307 454.59 55.4972 453.942 53.9159C453.294 52.3346 452.973 50.6384 453 48.9297ZM466.29 56.1497C467.205 56.1643 468.113 55.9848 468.955 55.6228C469.796 55.2608 470.551 54.7247 471.17 54.0497C472.461 52.6496 473.178 50.8146 473.178 48.9097C473.178 47.0048 472.461 45.1697 471.17 43.7697C470.543 43.1053 469.788 42.576 468.949 42.2142C468.111 41.8524 467.208 41.6658 466.295 41.6658C465.381 41.6658 464.478 41.8524 463.64 42.2142C462.801 42.576 462.046 43.1053 461.42 43.7697C460.128 45.1697 459.411 47.0048 459.411 48.9097C459.411 50.8146 460.128 52.6496 461.42 54.0497C462.034 54.7196 462.782 55.2528 463.616 55.6146C464.45 55.9764 465.351 56.1587 466.26 56.1497H466.29Z" fill="#B6DCF6"/>
<path d="M483.24 61.3597V36.4497H489.79V39.1697C490.54 38.1273 491.532 37.283 492.68 36.7097C493.848 36.1426 495.132 35.855 496.43 35.8697C496.956 35.8797 497.48 35.9232 498 35.9997C498.395 36.0682 498.774 36.2071 499.12 36.4097V42.1497C498.616 41.9195 498.085 41.7516 497.54 41.6497C496.957 41.5364 496.364 41.4795 495.77 41.4797C494.531 41.4839 493.316 41.8299 492.26 42.4797C491.172 43.1396 490.3 44.1021 489.75 45.2497V61.3597H483.24Z" fill="#B6DCF6"/>
<path d="M744 27V67H519V27H744ZM686.561 38.2246C685.277 38.2246 684.069 38.4583 682.936 38.9248C681.819 39.3748 680.843 40.0163 680.01 40.8496C679.177 41.6662 678.518 42.6248 678.035 43.7246C677.568 44.8079 677.335 45.9833 677.335 47.25C677.335 48.5166 677.569 49.6998 678.035 50.7998C678.518 51.8831 679.185 52.8415 680.035 53.6748C680.885 54.4915 681.869 55.1329 682.985 55.5996C684.102 56.0496 685.31 56.2754 686.61 56.2754C687.877 56.2754 689.044 56.0496 690.11 55.5996C691.177 55.1496 692.102 54.5245 692.885 53.7246C693.668 52.908 694.277 51.9583 694.71 50.875C695.16 49.7751 695.385 48.5752 695.385 47.2754V46.1748H686.335V49.3252H691.51C691.36 50.025 691.051 50.6581 690.585 51.2246C690.135 51.7746 689.577 52.2087 688.91 52.5254C688.244 52.8254 687.493 52.9746 686.66 52.9746C685.86 52.9746 685.119 52.833 684.436 52.5498C683.769 52.2498 683.177 51.8496 682.66 51.3496C682.16 50.8331 681.769 50.2251 681.485 49.5254C681.202 48.8254 681.061 48.0667 681.061 47.25C681.061 46.4333 681.193 45.6833 681.46 45C681.743 44.3001 682.135 43.7001 682.635 43.2002C683.135 42.6836 683.718 42.2833 684.385 42C685.051 41.7 685.777 41.5498 686.561 41.5498C687.494 41.5499 688.369 41.7417 689.186 42.125C690.002 42.5083 690.711 43.0753 691.311 43.8252L693.835 41.5C693.002 40.4667 691.943 39.6663 690.66 39.0996C689.377 38.5164 688.01 38.2247 686.561 38.2246ZM558.16 42.75C556.91 42.75 555.777 43.0505 554.761 43.6504C553.744 44.2504 552.936 45.0586 552.336 46.0752C551.753 47.0919 551.461 48.2333 551.461 49.5C551.461 50.7667 551.769 51.9081 552.386 52.9248C553.002 53.9415 553.836 54.7496 554.886 55.3496C555.952 55.9496 557.136 56.25 558.436 56.25C559.486 56.25 560.427 56.0998 561.261 55.7998C562.111 55.4998 562.935 55.0249 563.735 54.375L561.485 52.3252C561.136 52.6583 560.711 52.9163 560.211 53.0996C559.728 53.2829 559.194 53.375 558.61 53.375C558.027 53.375 557.477 53.2585 556.961 53.0254C556.461 52.7921 556.036 52.4665 555.686 52.0498C555.352 51.6333 555.111 51.1668 554.961 50.6504H564.61V49.75C564.61 48.4167 564.327 47.2248 563.761 46.1748C563.211 45.1248 562.452 44.2915 561.485 43.6748C560.519 43.0582 559.41 42.75 558.16 42.75ZM580.761 42.75C579.644 42.75 578.677 42.9254 577.86 43.2754C577.06 43.6087 576.435 44.0836 575.985 44.7002C575.552 45.3002 575.336 46.0251 575.336 46.875C575.336 47.925 575.669 48.7748 576.336 49.4248C577.003 50.058 577.985 50.4748 579.285 50.6748L581.785 51.0498C582.352 51.1331 582.761 51.2746 583.011 51.4746C583.277 51.6746 583.41 51.9421 583.41 52.2754C583.41 52.6917 583.177 53.0333 582.711 53.2998C582.261 53.5498 581.652 53.6748 580.886 53.6748C580.202 53.6748 579.511 53.5498 578.811 53.2998C578.127 53.0498 577.41 52.6748 576.66 52.1748L574.961 54.4502C575.711 55.0334 576.594 55.4832 577.61 55.7998C578.627 56.0998 579.736 56.25 580.936 56.25C582.035 56.25 583.01 56.0668 583.86 55.7002C584.71 55.3169 585.386 54.8081 585.886 54.1748C586.386 53.5249 586.636 52.7833 586.636 51.9502C586.636 50.9335 586.294 50.1079 585.61 49.4746C584.927 48.8248 583.935 48.4079 582.636 48.2246L580.16 47.8496C579.51 47.7663 579.052 47.6248 578.785 47.4248C578.519 47.2248 578.386 46.9495 578.386 46.5996C578.386 46.2165 578.569 45.9081 578.936 45.6748C579.319 45.4415 579.819 45.3252 580.436 45.3252C581.102 45.3252 581.76 45.4251 582.41 45.625C583.06 45.825 583.744 46.1496 584.461 46.5996L586.11 44.375C585.31 43.825 584.452 43.417 583.535 43.1504C582.635 42.8838 581.711 42.75 580.761 42.75ZM607.68 42.7246C606.38 42.7247 605.196 43.025 604.13 43.625C603.08 44.225 602.247 45.0419 601.63 46.0752C601.03 47.0918 600.73 48.2334 600.73 49.5C600.73 50.7667 601.039 51.9081 601.655 52.9248C602.272 53.9415 603.105 54.7496 604.155 55.3496C605.205 55.9495 606.38 56.25 607.68 56.25C608.996 56.25 610.18 55.9496 611.23 55.3496C612.28 54.7496 613.105 53.9413 613.705 52.9248C614.322 51.9082 614.63 50.7666 614.63 49.5C614.63 48.2334 614.322 47.0918 613.705 46.0752C613.105 45.0419 612.272 44.225 611.205 43.625C610.155 43.025 608.98 42.7246 607.68 42.7246ZM652.356 38.2246C651.057 38.2246 649.84 38.4583 648.707 38.9248C647.59 39.3748 646.607 40.0085 645.757 40.8252C644.907 41.6419 644.24 42.6002 643.757 43.7002C643.29 44.7835 643.057 45.9667 643.057 47.25C643.057 48.5166 643.29 49.6998 643.757 50.7998C644.24 51.8831 644.898 52.8337 645.731 53.6504C646.581 54.467 647.574 55.1085 648.707 55.5752C649.84 56.0251 651.057 56.25 652.356 56.25C653.29 56.25 654.199 56.125 655.082 55.875C655.982 55.6083 656.815 55.2333 657.582 54.75C658.349 54.2668 659.007 53.6919 659.557 53.0254L657.182 50.6748C656.565 51.3915 655.857 51.9419 655.057 52.3252C654.257 52.7085 653.398 52.9004 652.481 52.9004C651.665 52.9004 650.907 52.7579 650.207 52.4746C649.524 52.1913 648.924 51.7997 648.407 51.2998C647.891 50.7832 647.49 50.1833 647.207 49.5C646.924 48.8 646.782 48.05 646.782 47.25C646.782 46.4333 646.924 45.6833 647.207 45C647.49 44.3001 647.882 43.7002 648.382 43.2002C648.882 42.6835 649.474 42.2833 650.157 42C650.84 41.7002 651.573 41.5498 652.356 41.5498C653.306 41.5498 654.19 41.7504 655.007 42.1504C655.84 42.5504 656.574 43.1415 657.207 43.9248L659.657 41.5C659.107 40.8168 658.44 40.2333 657.657 39.75C656.891 39.2667 656.057 38.8917 655.157 38.625C654.257 38.3583 653.323 38.2246 652.356 38.2246ZM717.27 52.1748C716.72 52.1748 716.244 52.3754 715.844 52.7754C715.444 53.1752 715.244 53.6583 715.244 54.2246C715.244 54.7746 715.444 55.2504 715.844 55.6504C716.244 56.0504 716.72 56.25 717.27 56.25C717.819 56.2499 718.294 56.0502 718.694 55.6504C719.094 55.2504 719.294 54.7746 719.294 54.2246C719.294 53.6583 719.094 53.1752 718.694 52.7754C718.294 52.3755 717.819 52.1749 717.27 52.1748ZM593.688 42.7246C592.738 42.7246 591.788 42.8419 590.838 43.0752C589.905 43.3085 588.921 43.6583 587.888 44.125L589.138 46.6504C589.971 46.2837 590.705 46.0163 591.338 45.8496C591.971 45.6663 592.563 45.5752 593.113 45.5752C594.013 45.5753 594.697 45.7671 595.163 46.1504C595.629 46.5337 595.863 47.1 595.863 47.8496V48.7998C594.863 48.4498 593.796 48.2754 592.663 48.2754C591.013 48.2754 589.713 48.6252 588.763 49.3252C587.83 50.0085 587.363 50.9749 587.363 52.2246C587.363 53.0079 587.563 53.6998 587.963 54.2998C588.363 54.8997 588.921 55.3746 589.638 55.7246C590.354 56.0579 591.18 56.2246 592.113 56.2246C592.846 56.2246 593.521 56.1335 594.138 55.9502C594.754 55.7669 595.33 55.4752 595.863 55.0752V56H599.237V47.5498C599.237 46.0166 598.746 44.8333 597.763 44C596.796 43.15 595.437 42.7246 593.688 42.7246ZM537.075 42.9746L542.649 56H545.975L551.575 42.9746H547.925L544.375 51.6504L540.8 42.9746H537.075ZM573.109 42.6748C572.376 42.6748 571.717 42.825 571.134 43.125C570.551 43.425 570.05 43.8582 569.634 44.4248V42.9746H566.209V56H569.634V47.5498C569.967 46.9332 570.409 46.4583 570.959 46.125C571.509 45.7917 572.118 45.625 572.784 45.625C573.101 45.625 573.409 45.658 573.709 45.7246C574.009 45.7746 574.284 45.8579 574.534 45.9746V42.9746C574.218 42.7913 573.742 42.6915 573.109 42.6748ZM620.064 38.5L623.939 56H627.739L631.239 43.7998L634.689 56H638.515L642.364 38.5H638.765L636.39 50.3252L632.989 38.5H629.564L626.165 50.3496L623.79 38.5H620.064ZM666.701 38.5L659.501 56H663.276L665.076 51.4004H672.301L674.076 56H678.001L670.876 38.5H666.701ZM707.488 38.2246C706.322 38.2246 705.204 38.4581 704.138 38.9248C703.071 39.3747 702.047 40.0582 701.063 40.9746L702.913 43.2246C703.73 42.4414 704.48 41.8918 705.163 41.5752C705.846 41.2419 706.588 41.0752 707.388 41.0752C708.221 41.0752 708.905 41.2913 709.438 41.7246C709.988 42.1578 710.263 42.6998 710.263 43.3496C710.263 43.6662 710.213 43.9832 710.113 44.2998C710.03 44.5997 709.88 44.9081 709.663 45.2246C709.463 45.5413 709.188 45.8833 708.838 46.25L701.538 53.6504V56H713.738V53.2002L705.763 53.2246L711.063 47.9004C711.647 47.3172 712.113 46.7753 712.463 46.2754C712.813 45.7587 713.063 45.25 713.213 44.75C713.38 44.2501 713.463 43.7169 713.463 43.1504C713.463 42.1671 713.213 41.3085 712.713 40.5752C712.213 39.8419 711.513 39.2663 710.613 38.8496C709.713 38.433 708.671 38.2246 707.488 38.2246ZM723.409 38.5L718.734 40.4004V43.4004L722.159 41.9746V56H725.585V38.5H723.409ZM593.113 50.5254C593.63 50.5254 594.113 50.5671 594.562 50.6504C595.013 50.7337 595.447 50.8587 595.863 51.0254V52.9248C595.48 53.2081 595.046 53.4252 594.562 53.5752C594.079 53.7084 593.555 53.7754 592.988 53.7754C592.272 53.7754 591.696 53.6329 591.263 53.3496C590.83 53.0497 590.613 52.6501 590.613 52.1504C590.613 51.6504 590.829 51.2579 591.263 50.9746C591.713 50.6747 592.33 50.5254 593.113 50.5254ZM607.68 45.7002C608.363 45.7002 608.972 45.8747 609.505 46.2246C610.055 46.5579 610.488 47.0085 610.805 47.5752C611.138 48.1419 611.305 48.7833 611.305 49.5C611.305 50.2 611.138 50.8415 610.805 51.4248C610.488 51.9915 610.055 52.4421 609.505 52.7754C608.972 53.1086 608.363 53.2754 607.68 53.2754C607.013 53.2753 606.405 53.1085 605.855 52.7754C605.305 52.4421 604.871 51.9915 604.555 51.4248C604.238 50.8415 604.08 50.1999 604.08 49.5C604.08 48.7834 604.238 48.1418 604.555 47.5752C604.871 47.0085 605.305 46.5579 605.855 46.2246C606.405 45.8749 607.013 45.7002 607.68 45.7002ZM671.201 48.5H666.201L668.701 42.0498L671.201 48.5ZM558.086 45.5752C558.602 45.5753 559.069 45.6916 559.485 45.9248C559.919 46.1415 560.286 46.4496 560.586 46.8496C560.903 47.2329 561.119 47.6835 561.235 48.2002H554.91C555.043 47.667 555.252 47.2085 555.535 46.8252C555.835 46.4252 556.202 46.1171 556.636 45.9004C557.069 45.6837 557.553 45.5752 558.086 45.5752ZM596.138 37.5C596.021 37.9999 595.879 38.3498 595.713 38.5498C595.546 38.7497 595.321 38.8495 595.038 38.8496C594.738 38.8496 594.388 38.7497 593.988 38.5498C593.588 38.3331 593.163 38.1248 592.713 37.9248C592.28 37.7082 591.83 37.5997 591.363 37.5996C589.913 37.5996 588.963 38.6083 588.513 40.625L590.613 41.0752C590.713 40.5919 590.846 40.2498 591.013 40.0498C591.179 39.8498 591.396 39.75 591.663 39.75C591.996 39.7501 592.363 39.8586 592.763 40.0752L594.013 40.7002C594.463 40.9002 594.913 41 595.363 41C596.096 40.9999 596.697 40.7499 597.163 40.25C597.646 39.75 597.988 38.9833 598.188 37.9502L596.138 37.5Z" fill="#B6DCF6"/>
</svg>
